<svg id="Capa_1" enable-background="new 0 0 512 512" height="512" viewBox="0 0 512 512" width="512" xmlns="http://www.w3.org/2000/svg"><g><g><path d="m472 31h-432c-16.57 0-30 13.43-30 30v270h492v-270c0-16.57-13.43-30-30-30z" fill="#91def5"/><path d="m439 331v-240h-153c-16.57 0-30 13.43-30 30 0-16.57-13.43-30-30-30h-153v240h-63v30c0 16.57 13.43 30 30 30h186v90h60v-90h186c16.57 0 30-13.43 30-30v-30z" fill="#fff5f5"/></g><g><path d="m196 141h-60c-5.523 0-10 4.477-10 10s4.477 10 10 10h60c5.523 0 10-4.477 10-10s-4.477-10-10-10z"/><path d="m196 201h-60c-5.523 0-10 4.477-10 10s4.477 10 10 10h60c5.523 0 10-4.477 10-10s-4.477-10-10-10z"/><path d="m196 261h-60c-5.523 0-10 4.477-10 10s4.477 10 10 10h60c5.523 0 10-4.477 10-10s-4.477-10-10-10z"/><path d="m316 161h60c5.523 0 10-4.477 10-10s-4.477-10-10-10h-60c-5.523 0-10 4.477-10 10s4.477 10 10 10z"/><path d="m316 221h60c5.523 0 10-4.477 10-10s-4.477-10-10-10h-60c-5.523 0-10 4.477-10 10s4.477 10 10 10z"/><path d="m316 281h60c5.523 0 10-4.477 10-10s-4.477-10-10-10h-60c-5.523 0-10 4.477-10 10s4.477 10 10 10z"/><circle cx="256" cy="31" r="10"/><path d="m472 21h-171c-5.523 0-10 4.477-10 10s4.477 10 10 10h171c11.028 0 20 8.972 20 20v260h-43v-230c0-5.523-4.477-10-10-10h-153c-11.938 0-22.665 5.264-30 13.585-7.335-8.321-18.062-13.585-30-13.585h-153c-5.523 0-10 4.477-10 10v230h-43v-260c0-11.028 8.972-20 20-20h171c5.523 0 10-4.477 10-10s-4.477-10-10-10h-171c-22.056 0-40 17.944-40 40v300c0 22.056 17.944 40 40 40h176v70h-50c-5.523 0-10 4.477-10 10s4.477 10 10 10h180c5.523 0 10-4.477 10-10s-4.477-10-10-10h-50v-70h176c22.056 0 40-17.944 40-40v-300c0-22.056-17.944-40-40-40zm-186 80h143v220h-163v-200c0-11.028 8.972-20 20-20zm-203 0h143c11.028 0 20 8.972 20 20v200h-163zm193 370h-40v-70h40zm196-90h-432c-11.028 0-20-8.972-20-20v-20h472v20c0 11.028-8.972 20-20 20z"/></g></g></svg>